<svg xmlns="http://www.w3.org/2000/svg" viewBox="0 0 48 48">
    <path fill="#FFE812" d="M24 4C12.402 4 3 11.402 3 20.5c0 5.647 3.725 10.605 9.283 13.365l-2.357 8.721 8.276-5.458c1.856.519 3.805.872 5.798.872 11.598 0 21-7.402 21-16.5S35.598 4 24 4z"/>
    <path fill="#1A1A1A" d="M24 11.554c-7.936 0-14.375 5.07-14.375 11.321 0 6.252 6.439 11.321 14.375 11.321.693 0 1.375-.044 2.043-.125l.003.007 5.371 3.544-1.529-5.659c4.889-1.786 8.487-5.861 8.487-10.588 0-6.251-6.44-11.321-14.375-11.321z"/>
</svg>